<svg height="512pt" viewBox="0 0 512 512" width="512pt" xmlns="http://www.w3.org/2000/svg"><path d="m512 256c0 141.386719-114.613281 256-256 256s-256-114.613281-256-256 114.613281-256 256-256 256 114.613281 256 256zm0 0" fill="#f05e3a"/><path d="m512 256c0-20.644531-2.460938-40.710938-7.074219-59.9375l-88.855469-88.855469-77.0625 89.175781-262.007812 71.785157 58.28125 58.28125-47.28125 31.71875 48.5 48.496093-2.5 2.503907 102.066406 102.066406c6.578125.503906 13.226563.765625 19.933594.765625 141.386719 0 256-114.613281 256-256zm0 0" fill="#d83a21"/><path d="m211.898438 168.242188-115.96875-61.035157 15.585937 119.546875zm0 0" fill="#e6e6e6"/><path d="m193.648438 179.289062-72.5625-38.191406 9.753906 74.804688zm0 0" fill="#fff"/><path d="m300.101562 168.242188 115.96875-61.035157-15.585937 119.546875zm0 0" fill="#d7d7d7"/><path d="m318.351562 179.289062 72.5625-38.191406-9.753906 74.804688zm0 0" fill="#e9edf5"/><path d="m134 182.351562-57 85.816407 37 14-26 76 41-5 5 56s37-25 62-18 19 44 60 44 35-37 60-44 62 18 62 18l5-56 41 5-26-76 37-14-57-85.816407s-103-118.820312-244 0zm0 0" fill="#fff"/><path d="m435 268.167969-57-85.816407s-47.558594-54.863281-122.285156-52.75v305.5625c.09375 0 .1875.003907.285156.003907 41 0 35-37 60-44s62 18 62 18l5-56 41 5-26-76zm0 0" fill="#e9edf5"/><path d="m200.667969 276.5c0 7.546875-6.121094 13.667969-13.667969 13.667969s-13.667969-6.121094-13.667969-13.667969 6.121094-13.667969 13.667969-13.667969 13.667969 6.121094 13.667969 13.667969zm0 0" fill="#7e8596"/><path d="m338.667969 276.5c0 7.546875-6.121094 13.667969-13.667969 13.667969s-13.667969-6.121094-13.667969-13.667969 6.121094-13.667969 13.667969-13.667969 13.667969 6.121094 13.667969 13.667969zm0 0" fill="#707789"/><path d="m306.140625 250.808594 98.746094-27.980469-26.886719-40.476563s-103-118.816406-244 0l-26.886719 40.476563 102.886719 28.734375 20 131.601562h52c0 .003907 22.757812-132.636718 24.140625-132.355468zm0 0" fill="#e6e6e6"/><path d="m378 182.351562s-47.558594-54.863281-122.285156-52.75v253.566407h26.285156s22.757812-132.640625 24.140625-132.359375l98.746094-27.980469zm0 0" fill="#d7d7d7"/><path d="m273.347656 405.011719h-34.695312c-6.410156 0-11.605469-5.195313-11.605469-11.605469v-10.480469c0-6.410156 5.195313-11.605469 11.605469-11.605469h34.695312c6.410156 0 11.605469 5.195313 11.605469 11.605469v10.480469c0 6.410156-5.195313 11.605469-11.605469 11.605469zm0 0" fill="#7e8596"/><path d="m273.347656 371.320312h-17.632812v33.691407h17.632812c6.410156 0 11.605469-5.195313 11.605469-11.605469v-10.480469c0-6.410156-5.195313-11.605469-11.605469-11.605469zm0 0" fill="#707789"/></svg>